# xmcd
#
# Track frame offsets:
#	182
#	9642
#	23442
#	35570
#	52037
#	67720
#	78500
#	90127
#	103317
#	117300
#	130597
#	144800
#
# Disc length: 2148
#
# Revision: 3
# Processed by: cddbd v1.5.1PL0 Copyright (c) Steve Scherf et al.
# Submitted via: EasyCDDAExtractor 5.0.5.1
# Normalized: r2:DSETVAR1
#
DISCID=8a08620c
DTITLE=Various Artist - The Blues Collection-Disk 4
DYEAR=1996
DGENRE=Blues
TTITLE0=Ray Charles - All To Myself Alone
TTITLE1=John Lee Hooker - Time Is Marching On
TTITLE2=John Lee Hooker - Everybody Rockin'
TTITLE3=Johnny Otis - Low Down Dirty Dog Blues
TTITLE4=B. B. King - How Blue Can You Get
TTITLE5=Billie Holiday - No Detour Ahead
TTITLE6=Elmore James - Rollin' And Tumblin'
TTITLE7=Bo Diddley - Cracklin'
TTITLE8=Joe Turner - TV Mama
TTITLE9=Louis Jordan - Beans And Cornbread
TTITLE10=Charles Brown - Black Night
TTITLE11=John Lee Hooker - Mama, You've Got A Daughter
EXTD=
EXTT0=
EXTT1=
EXTT2=
EXTT3=
EXTT4=
EXTT5=
EXTT6=
EXTT7=
EXTT8=
EXTT9=
EXTT10=
EXTT11=
PLAYORDER=
